<svg xmlns="http://www.w3.org/2000/svg" xmlns:xlink="http://www.w3.org/1999/xlink" width="256" zoomAndPan="magnify" viewBox="0 0 192 191.999996" height="256" preserveAspectRatio="xMidYMid meet" version="1.2"><defs><clipPath id="848e4d54c9"><path d="M 2.304688 2.304688 L 189.804688 2.304688 L 189.804688 189.804688 L 2.304688 189.804688 Z M 2.304688 2.304688 "/></clipPath></defs><g id="f9377d7028"><g clip-rule="nonzero" clip-path="url(#848e4d54c9)"><path style=" stroke:none;fill-rule:evenodd;fill:#ffffff;fill-opacity:1;" d="M 162.089844 29.535156 C 144.554688 11.984375 121.230469 2.3125 96.386719 2.304688 C 45.191406 2.304688 3.523438 43.953125 3.503906 95.152344 C 3.496094 111.515625 7.773438 127.488281 15.902344 141.570312 L 2.722656 189.6875 L 51.960938 176.773438 C 65.527344 184.171875 80.804688 188.070312 96.347656 188.078125 L 96.386719 188.078125 C 147.578125 188.078125 189.246094 146.421875 189.269531 95.226562 C 189.277344 70.414062 179.625 47.085938 162.089844 29.535156 M 96.386719 172.394531 L 96.355469 172.394531 C 82.503906 172.390625 68.914062 168.667969 57.0625 161.636719 L 54.242188 159.964844 L 25.023438 167.625 L 32.824219 139.148438 L 30.988281 136.226562 C 23.261719 123.941406 19.179688 109.738281 19.183594 95.15625 C 19.203125 52.605469 53.832031 17.984375 96.417969 17.984375 C 117.035156 17.992188 136.421875 26.03125 150.996094 40.621094 C 165.570312 55.207031 173.59375 74.597656 173.585938 95.21875 C 173.566406 137.773438 138.9375 172.394531 96.386719 172.394531 M 138.730469 114.59375 C 136.410156 113.433594 125 107.820312 122.875 107.046875 C 120.746094 106.273438 119.199219 105.886719 117.652344 108.207031 C 116.105469 110.53125 111.65625 115.757812 110.304688 117.304688 C 108.949219 118.851562 107.597656 119.046875 105.273438 117.886719 C 102.953125 116.722656 95.476562 114.273438 86.613281 106.371094 C 79.710938 100.21875 75.054688 92.621094 73.699219 90.296875 C 72.347656 87.976562 73.558594 86.71875 74.71875 85.5625 C 75.761719 84.523438 77.039062 82.851562 78.199219 81.496094 C 79.359375 80.144531 79.746094 79.175781 80.519531 77.628906 C 81.292969 76.078125 80.90625 74.722656 80.328125 73.5625 C 79.746094 72.402344 75.105469 60.980469 73.171875 56.335938 C 71.289062 51.8125 69.375 52.425781 67.949219 52.351562 C 66.597656 52.285156 65.050781 52.273438 63.5 52.273438 C 61.953125 52.273438 59.441406 52.851562 57.3125 55.175781 C 55.1875 57.496094 49.191406 63.109375 49.191406 74.53125 C 49.191406 85.949219 57.507812 96.980469 58.667969 98.53125 C 59.828125 100.078125 75.03125 123.511719 98.3125 133.5625 C 103.851562 135.953125 108.171875 137.378906 111.542969 138.449219 C 117.101562 140.214844 122.164062 139.964844 126.160156 139.367188 C 130.621094 138.703125 139.890625 133.757812 141.828125 128.335938 C 143.761719 122.917969 143.761719 118.273438 143.179688 117.304688 C 142.601562 116.335938 141.054688 115.757812 138.730469 114.59375 "/></g></g></svg>